<svg width="20" height="20" viewBox="0 0 20 20" fill="none" xmlns="http://www.w3.org/2000/svg">
<path d="M13.1292 11.8792H12.4708L12.2375 11.6542C13.0542 10.7042 13.5458 9.47086 13.5458 8.12919C13.5458 5.13752 11.1208 2.71252 8.12916 2.71252C5.13749 2.71252 2.71249 5.13752 2.71249 8.12919C2.71249 11.1209 5.13749 13.5459 8.12916 13.5459C9.47083 13.5459 10.7042 13.0542 11.6542 12.2375L11.8792 12.4709V13.1292L16.0458 17.2875L17.2875 16.0459L13.1292 11.8792ZM8.12916 11.8792C6.05416 11.8792 4.37916 10.2042 4.37916 8.12919C4.37916 6.05419 6.05416 4.37919 8.12916 4.37919C10.2042 4.37919 11.8792 6.05419 11.8792 8.12919C11.8792 10.2042 10.2042 11.8792 8.12916 11.8792Z" fill="white"/>
</svg>
