<svg width="20" height="20" viewBox="0 0 20 20" fill="none" xmlns="http://www.w3.org/2000/svg">
<path fill-rule="evenodd" clip-rule="evenodd" d="M12.2917 3.125V7.70833H16.875V3.125H12.2917ZM11.0417 3C11.0417 2.37868 11.5453 1.875 12.1667 1.875H17C17.6213 1.875 18.125 2.37868 18.125 3V7.83333C18.125 8.45465 17.6213 8.95833 17 8.95833H12.1667C11.5453 8.95833 11.0417 8.45465 11.0417 7.83333V3ZM3.125 16.875V12.2917H7.70833V16.875H3.125ZM3 11.0417C2.37868 11.0417 1.875 11.5453 1.875 12.1667V17C1.875 17.6213 2.37868 18.125 3 18.125H7.83333C8.45465 18.125 8.95833 17.6213 8.95833 17V12.1667C8.95833 11.5453 8.45465 11.0417 7.83333 11.0417H3ZM12.2917 16.875V12.2917H16.875V16.875H12.2917ZM12.1667 11.0417C11.5453 11.0417 11.0417 11.5453 11.0417 12.1667V17C11.0417 17.6213 11.5453 18.125 12.1667 18.125H17C17.6213 18.125 18.125 17.6213 18.125 17V12.1667C18.125 11.5453 17.6213 11.0417 17 11.0417H12.1667ZM3.125 7.70833V3.125H7.70833V7.70833H3.125ZM3 1.875C2.37868 1.875 1.875 2.37868 1.875 3V7.83333C1.875 8.45465 2.37868 8.95833 3 8.95833H7.83333C8.45465 8.95833 8.95833 8.45465 8.95833 7.83333V3C8.95833 2.37868 8.45465 1.875 7.83333 1.875H3Z" fill="#B9B9C6"/>
</svg>
